# xmcd
#
# Track frame offsets: 
#        150
#        14315
#        29260
#        47377
#        62592
#        77822
#        89155
#        111172
#        128225
#        150587
#        163590
#        175522
#        186852
#        200052
#        213202
#        221370
#        238422
#
# Disc length: 3374 seconds
#
# Revision: 1
# Processed by: cddbd v1.5.2PL0 Copyright (c) Steve Scherf et al.
# Submitted via: ExactAudioCopy v0.99pb5
#
DISCID=e50d2c11
DTITLE=Nocna Zmiana Bluesa - Blues Mieszka W Polsce
DYEAR=1995
DGENRE=Blues
TTITLE0=Blues Mieszka W Polsce
TTITLE1=Trudne Chwile
TTITLE2=Tylko Forsa
TTITLE3=Klapa
TTITLE4=Zakratowana Cela
TTITLE5=Niespodziewany Cios
TTITLE6=Blues Dla Zmartwionych
TTITLE7=Ciezki Dzien
TTITLE8=Nareszcie Koniec
TTITLE9=Tylko On
TTITLE10=Meisterklasse Boogie
TTITLE11=Sto Kilometrow
TTITLE12=Naiwna Nadzieja
TTITLE13=Zbyt Pozno
TTITLE14=Ostatni Blues
TTITLE15=Robota Kipi
TTITLE16=Bardzo Ciezkie Czasy
EXTD=
EXTT0=
EXTT1=
EXTT2=
EXTT3=
EXTT4=
EXTT5=
EXTT6=
EXTT7=
EXTT8=
EXTT9=
EXTT10=
EXTT11=
EXTT12=
EXTT13=
EXTT14=
EXTT15=
EXTT16=
PLAYORDER=
